<?xml version="1.0" encoding="UTF-8"?>
<svg viewBox="0 0 1024 1024" xmlns="http://www.w3.org/2000/svg" xmlns:svg="http://www.w3.org/2000/svg" version="1.1">

<g class="layer" transform="scale(0.8) rotate(-45 800 230)">
  <title>Layer 1</title>
  <path d="M0 0 C1.22117073 -0.0034177 2.44234146 -0.0068354 3.70051736 -0.01035666 C7.08723497 -0.01580675 10.47302821 -0.00330526 13.85963404 0.01675558 C17.51261344 0.03402798 21.16556425 0.02818404 24.818573 0.02514648 C31.14662758 0.02304898 37.4745172 0.03559991 43.80253029 0.05809784 C52.95174851 0.0906048 62.10088695 0.10102351 71.25015666 0.10604981 C86.09415906 0.11480451 100.93807354 0.14142484 115.7820282 0.17926025 C130.20162008 0.21597581 144.62118808 0.2442898 159.04081726 0.2612915 C159.92962833 0.2623424 160.81843939 0.26339329 161.73418412 0.26447603 C166.19308403 0.26969618 170.65198412 0.27475101 175.11088431 0.27972364 C212.10248328 0.32119114 249.09398229 0.39164434 286.085495 0.48101807 C286.40613611 39.00427227 286.65272878 77.52732502 286.80040961 116.05164428 C286.81791891 120.60264866 286.83603948 125.15365042 286.85453796 129.70465088 C286.85821031 130.61065004 286.86188266 131.51664921 286.86566629 132.4501029 C286.92653888 147.10848736 287.03689581 161.76610096 287.16563414 176.42402855 C287.29668686 191.4712835 287.37434501 206.51813554 287.40273392 221.56593776 C287.42191802 230.8472533 287.48243633 240.12638996 287.59632553 249.40703449 C287.67049415 255.77646947 287.69266115 262.14478291 287.67451428 268.51461807 C287.6655692 272.18738056 287.67898763 275.85634544 287.75437164 279.52842712 C288.20609585 302.66205666 288.20609585 302.66205666 283.05525589 308.78829193 C280.23367297 311.48246852 277.20936371 313.55744191 273.81586671 315.46471548 C271.17000704 317.01871339 268.91183367 318.99157551 266.585495 320.98101807 C265.7089325 321.69258057 264.83237 322.40414307 263.929245 323.13726807 C260.60862933 325.87403922 257.34505085 328.67207378 254.085495 331.48101807 C248.97914531 335.88085945 243.82115068 340.20007229 238.585495 344.44586182 C235.99354741 346.47858381 235.99354741 346.47858381 233.54908371 349.06685066 C229.43676654 352.46532918 225.31191197 352.18969941 220.16807556 352.14285278 C219.17361789 352.153475 218.17916023 352.16409722 217.15456748 352.17504132 C213.82426507 352.20433688 210.49500744 352.19791747 207.16459656 352.19146729 C204.77601431 352.20479183 202.38744283 352.22018323 199.99888611 352.23748779 C194.18495319 352.27325307 188.37134038 352.28519242 182.5573037 352.28452466 C177.82923626 352.28416726 173.10125401 352.2920942 168.37320709 352.30585098 C153.49577355 352.34828737 138.61860257 352.36078038 123.74111602 352.35118581 C112.0176878 352.34480101 100.29494237 352.38474093 88.57169035 352.44607078 C76.52320545 352.50860701 64.47504987 352.53750962 52.42639899 352.5311662 C45.66639924 352.52826219 38.90706631 352.53889516 32.14720917 352.58541489 C25.7872503 352.62707412 19.42874924 352.62530589 13.06876373 352.5904541 C10.73796009 352.58495596 8.40706126 352.59474861 6.07640076 352.6211586 C-13.72477072 352.83044256 -13.72477072 352.83044256 -20.19874573 347.06381226 C-21.47834469 345.5704005 -22.72502687 344.04715789 -23.914505 342.48101807 C-25.64929614 341.0252001 -27.39577883 339.58291333 -29.164505 338.16851807 C-34.04021922 334.21987628 -38.81393181 330.16747773 -43.5683136 326.07476807 C-48.61229487 321.73360269 -53.69114693 317.43541227 -58.7816925 313.14898682 C-59.27495277 312.71212083 -59.76821304 312.27525484 -60.27642059 311.82515049 C-61.91890203 310.41444619 -61.91890203 310.41444619 -63.93851471 309.24320126 C-67.67968698 306.68883172 -69.6315512 304.74406733 -70.64019775 300.24167061 C-70.90167783 296.04797638 -70.90504824 291.92143761 -70.82270813 287.72344971 C-70.82025547 286.09059266 -70.82132879 284.45772714 -70.82563019 282.82487392 C-70.82743178 278.46327911 -70.78116885 274.10345043 -70.7247467 269.74227142 C-70.67908598 265.64565141 -70.67703668 261.54945451 -70.67134094 257.45257568 C-70.62941131 245.48265709 -70.51772127 233.51306508 -70.414505 221.54351807 C-70.249505 194.79289307 -70.084505 168.04226807 -69.914505 140.48101807 C-10.844505 140.48101807 48.225495 140.48101807 109.085495 140.48101807 C109.085495 163.91101807 109.085495 187.34101807 109.085495 211.48101807 C73.775495 211.48101807 38.465495 211.48101807 2.085495 211.48101807 C2.02362 221.03039307 1.961745 230.57976807 1.897995 240.41851807 C1.85005798 243.41679688 1.80212097 246.41507568 1.75273132 249.50421143 C1.76165767 251.9014483 1.77465245 254.29867495 1.79252625 256.69586182 C1.74050049 258.53767029 1.74050049 258.53767029 1.68742371 260.41668701 C1.76485766 265.30094439 2.01261109 269.02936929 4.97494793 273.03751278 C13.72278698 280.85731544 21.37258677 280.76984503 32.50932312 280.64556885 C34.35517156 280.65778348 36.20099803 280.67381896 38.04678345 280.69335938 C43.0328018 280.73419556 48.01713384 280.71856488 53.00317955 280.68994761 C58.23643196 280.66706021 63.46954609 280.68832148 68.70280457 280.7024231 C77.48899593 280.71876788 86.27450503 280.697296 95.06059265 280.65435791 C105.19891999 280.60538153 115.33561816 280.6212492 125.47390604 280.67079556 C134.19963414 280.71172152 142.92487358 280.71736018 151.65066671 280.69384754 C156.85293349 280.67986172 162.05443606 280.67781795 167.25665283 280.70767593 C172.1494272 280.73379955 177.04011453 280.71542262 181.93266487 280.66362762 C183.72118233 280.65179237 185.50987741 280.65503413 187.29832268 280.67499161 C196.82985323 280.77149706 204.96508961 280.61019196 212.19059563 273.54517937 C216.19068528 267.07680425 215.60104782 259.87825066 215.4929657 252.52789307 C215.50624911 250.70864015 215.52422233 248.88941637 215.54650879 247.07025146 C215.59224381 242.14797854 215.56890567 237.22829084 215.53014398 232.30604553 C215.49847837 227.14524364 215.52148594 221.98463095 215.53598022 216.8237915 C215.55139977 208.15834236 215.52122667 199.4939324 215.46464539 190.82867432 C215.39994108 180.82310602 215.4105348 170.81973062 215.46081859 160.81412888 C215.50725838 151.17259322 215.4971791 141.53187798 215.46259117 131.89031982 C215.44906564 127.79458534 215.45575504 123.69962899 215.47901344 119.60394287 C215.50408905 114.77662417 215.47969567 109.95197763 215.417799 105.12501526 C215.40303295 103.35825987 215.40509004 101.59126786 215.42559052 99.8245697 C215.70195746 90.12970439 215.70195746 90.12970439 211.91278648 81.48138428 C209.41048856 79.19007863 206.93385322 77.31524458 204.085495 75.48101807 C203.1651393 74.64083098 203.1651393 74.64083098 202.22619057 73.78367043 C199.13731733 71.90403464 196.17617889 72.05326189 192.66622925 72.07315063 C191.91637688 72.0656484 191.1665245 72.05814616 190.39394933 72.05041659 C187.87978931 72.02907431 185.36609632 72.02920014 182.85185242 72.02935791 C181.04982782 72.018745 179.24781004 72.00691499 177.44580078 71.99395752 C172.54900986 71.96315744 167.65236507 71.95203359 162.7554872 71.94631529 C159.69599669 71.94196273 156.63654412 71.93358913 153.57706642 71.92381668 C142.90301701 71.89006279 132.22907826 71.8729344 121.55497742 71.87017822 C111.60616184 71.86714357 101.65796775 71.82670128 91.70933264 71.76902997 C83.16736325 71.72125731 74.62559905 71.70044617 66.08349687 71.7003876 C60.9818809 71.69984937 55.88087334 71.68824645 50.77939415 71.64921188 C45.97988686 71.61335891 41.18151406 71.61105952 36.38194084 71.63438416 C34.62232986 71.63724517 32.86265218 71.6281823 31.10317612 71.60620499 C22.04182585 71.20347097 22.04182585 71.20347097 13.65815163 73.91997147 C11.85026452 75.63428082 11.85026452 75.63428082 10.58316517 77.4910984 C9.085495 79.48101807 9.085495 79.48101807 3.085495 84.48101807 C2.755495 96.03101807 2.425495 107.58101807 2.085495 119.48101807 C-21.674505 119.48101807 -45.434505 119.48101807 -69.914505 119.48101807 C-70.05888 108.57039307 -70.203255 97.65976807 -70.352005 86.41851807 C-70.41573303 82.984375 -70.47946106 79.55023193 -70.54512024 76.01202393 C-70.56556977 73.28165603 -70.58340607 70.55126676 -70.59809875 67.82086182 C-70.62553917 66.7673629 -70.62553917 66.7673629 -70.65353394 65.69258118 C-70.93985876 54.11243339 -70.93985876 54.11243339 -68.3815155 50.04191589 C-66.64768655 48.28839041 -64.94191065 46.87519583 -62.914505 45.48101807 C-61.90130188 44.55869385 -61.90130188 44.55869385 -60.86763 43.61773682 C-60.30559875 43.13949463 -59.7435675 42.66125244 -59.164505 42.16851807 C-55.86583584 39.32373555 -52.63143862 36.41802513 -49.414505 33.48101807 C-45.6509998 30.04837046 -41.8532115 26.66546797 -38.008255 23.32476807 C-35.45031473 21.0722535 -32.9327152 18.77784715 -30.414505 16.48101807 C-25.96377269 12.4248105 -21.50750376 8.37634612 -16.914505 4.48101807 C-16.29705319 3.79855137 -15.67960138 3.11608467 -15.04343891 2.41293716 C-10.21010496 -0.57134133 -5.57278573 -0.05671097 0 0 Z " fill="#008DED" transform="translate(507.9145050048828,442.51898193359375)"/>
  <path d="M0 0 C49.005 -0.309375 98.01 -0.61875 148.5 -0.9375 C163.96423828 -1.07406006 179.42847656 -1.21062012 195.36132812 -1.35131836 C214.26855469 -1.41906738 214.26855469 -1.41906738 223.12438965 -1.43165588 C229.30039608 -1.44561273 235.47435397 -1.50048905 241.64978027 -1.58363342 C248.78184562 -1.67951479 255.91195534 -1.7224502 263.04466912 -1.70167426 C266.6899289 -1.69268266 270.33082685 -1.70632985 273.97527409 -1.78822696 C297.73752604 -2.29642131 297.73752604 -2.29642131 306.30678511 5.1434502 C308.81641528 7.65715778 311.09844796 10.28792957 313.32358456 13.05466068 C316.21414714 16.40891578 319.62183418 19.15435321 323 22 C325.01834963 23.81409968 327.0065955 25.65826758 329 27.5 C332.2778141 30.52004872 335.56583268 33.52204137 338.9375 36.4375 C339.50874855 36.96131351 340.0799971 37.48512701 340.66855621 38.02481365 C343.06200319 40.12972939 343.06200319 40.12972939 346.18245697 42.11676502 C351.82913414 46.13528458 356.00867561 50.04129145 357.2146759 57.09322166 C357.8478673 63.50557459 357.73630729 69.91716813 357.65039062 76.35229492 C357.66474733 78.82222669 357.68466061 81.29213144 357.70968628 83.76197815 C357.75501452 89.75221823 357.74001854 95.73946962 357.69527191 101.72948285 C357.66032966 106.59913309 357.65176902 111.4681858 357.66172791 116.33794594 C357.66314249 117.03311259 357.66455707 117.72827923 357.66601452 118.44451154 C357.66902658 119.8570457 357.67210994 121.26957971 357.67526382 122.68211357 C357.70193273 135.89954165 357.65071563 149.11576844 357.57142729 162.33292887 C357.50513565 173.66045922 357.50123511 184.9865818 357.54394531 196.31420898 C357.59357602 209.49136866 357.60787374 222.6677364 357.5636878 235.84494287 C357.55904369 237.25112893 357.55443112 238.65731509 357.54985046 240.06350136 C357.54756346 240.75525088 357.54527645 241.44700041 357.54292014 242.15971204 C357.52914855 247.02190553 357.5400696 251.88368169 357.56037903 256.74584007 C357.58681648 263.29411928 357.55405617 269.84033271 357.48199844 276.38838768 C357.46428168 278.78887546 357.46518611 281.1895849 357.4862175 283.59004593 C357.63542331 302.68335871 357.63542331 302.68335871 353.5761261 307.36986732 C350.81121744 309.66249884 348.17251906 311.33979131 345 313 C343.81695152 313.92991009 342.6575036 314.89174689 341.5390625 315.8984375 C340.02726537 317.18326241 338.51538477 318.46798987 337.00244141 319.75146484 C335.33418578 321.16673332 333.6669481 322.58319182 332 324 C324.96402174 329.9801691 317.91486966 335.93202896 310.73046875 341.734375 C308.09995834 343.81344913 308.09995834 343.81344913 306.41757441 345.72290856 C302.62763697 349.61676681 299.81394585 351.46135889 294.33040619 351.8613348 C292.10338783 351.89057879 289.87566023 351.88148125 287.64880371 351.84178162 C285.80539398 351.85076981 285.80539398 351.85076981 283.92474365 351.85993958 C280.52269799 351.86948476 277.12349159 351.84764077 273.72178924 351.8125091 C269.99411229 351.78186461 266.26650293 351.79217642 262.53873444 351.79723454 C255.30782574 351.80095103 248.07752725 351.76868131 240.8467752 351.72372523 C232.48014714 351.67326725 224.11388404 351.66775898 215.74707031 351.66223145 C193.66461703 351.62549921 171.58229932 351.52777111 149.5 351.4375 C100.165 351.293125 50.83 351.14875 0 351 C0 235.17 0 119.34 0 0 Z M71 71 C71 139.97 71 208.94 71 280 C104.103125 280.20625 137.20625 280.4125 171.3125 280.625 C186.9810144 280.76156006 186.9810144 280.76156006 202.96606445 280.90087891 C212.34369538 280.93432682 212.34369538 280.93432682 221.72135925 280.95443726 C225.89308541 280.96374067 230.06353434 281.00115584 234.23490906 281.05575562 C239.56329113 281.12457111 244.88982781 281.14487317 250.21861303 281.13072276 C252.16949284 281.13367955 254.12043997 281.15338413 256.0709368 281.19215131 C268.59388276 281.43576935 268.59388276 281.43576935 279.64901733 276.05722046 C286.06770112 268.97575527 285.53993038 260.92949476 285.4074707 251.94921875 C285.42075737 250.13144084 285.43873266 248.31369211 285.46101379 246.4960022 C285.50670901 241.58198286 285.48343084 236.67055625 285.44464898 231.75656509 C285.41295759 226.60157598 285.43599621 221.4467749 285.45048523 216.29174805 C285.4658997 207.63647076 285.43575039 198.98223432 285.37915039 190.32714844 C285.31444745 180.33691504 285.32504124 170.348878 285.37532359 160.35861111 C285.42178224 150.72722149 285.41167572 141.09665271 285.37709618 131.46524048 C285.36357956 127.37591408 285.37024532 123.28736742 285.39351845 119.1980896 C285.41861572 114.37732051 285.39415208 109.55922443 285.332304 104.73881149 C285.31755284 102.97570041 285.31957371 101.21235222 285.34009552 99.44929886 C285.55926118 89.63312034 285.55926118 89.63312034 281.82729149 80.77108765 C279.34055499 78.23515555 276.86660882 76.08974306 274 74 C273.39914613 73.42871715 272.79829226 72.85743429 272.17923069 72.26883984 C268.90195514 70.36067206 265.65019278 70.59699196 261.96417236 70.63923645 C261.15009415 70.6366684 260.33601593 70.63410034 259.49726868 70.63145447 C256.75741963 70.62648391 254.01811919 70.64306667 251.27832031 70.65942383 C249.28538404 70.66034268 247.29244679 70.65994262 245.29951096 70.65832806 C239.95631517 70.65765001 234.61332042 70.67505358 229.27017212 70.69615936 C224.25872149 70.71322801 219.24732007 70.71404783 214.23583984 70.71618652 C199.57386654 70.73193652 184.91193074 70.77381989 170.25 70.8125 C121.12125 70.9053125 121.12125 70.9053125 71 71 Z " fill="#000000" transform="translate(0,443)"/>
  <path d="M0 0 C73.5384375 -0.433125 73.5384375 -0.433125 148.5625 -0.875 C171.77251343 -1.06618408 171.77251343 -1.06618408 195.45141602 -1.26123047 C214.36315918 -1.32446289 214.36315918 -1.32446289 223.21983337 -1.33621216 C229.39910295 -1.34924347 235.57659091 -1.40048412 241.75535583 -1.47805786 C248.88998791 -1.56749918 256.02291784 -1.6076307 263.15811407 -1.58822931 C266.80507363 -1.57983185 270.44823566 -1.59265104 274.09448922 -1.66901183 C297.88990529 -2.14382552 297.88990529 -2.14382552 306.12725919 4.93951023 C308.5015201 7.30940996 310.66176958 9.77104328 312.72493827 12.4148767 C314.3461502 14.43032485 316.1860114 16.05693605 318.1875 17.6875 C321.47604802 20.51950339 324.68126606 23.43704453 327.875 26.375 C333.2162946 31.28798719 338.59720662 36.15463768 344 41 C345.83382932 42.64528067 347.66717108 44.29110496 349.5 45.9375 C350.3146875 46.66839844 351.129375 47.39929687 351.96875 48.15234375 C355.97049855 51.7923958 355.97049855 51.7923958 356.262205 53.84515899 C356.26795044 54.60091518 356.27369587 55.35667136 356.2796154 56.13532925 C356.29099789 57.00685995 356.30238037 57.87839064 356.31410778 58.77633137 C356.31646753 59.73963039 356.31882728 60.70292941 356.32125854 61.69541931 C356.33143418 62.71433858 356.34160982 63.73325785 356.35209382 64.78305346 C356.38365092 68.21986527 356.40062122 71.65659267 356.41748047 75.09350586 C356.43654912 77.54883363 356.45633106 80.00415596 356.47677612 82.45947266 C356.53422665 89.84618268 356.57373237 97.23289157 356.60756081 104.61973915 C356.61715072 106.7068389 356.62711744 108.79393657 356.63717127 110.88103414 C356.69913095 123.8450937 356.75249649 136.80917116 356.78600883 149.77333736 C356.79390774 152.7773587 356.80191372 155.78137971 356.81005859 158.78540039 C356.81207532 159.53202828 356.81409204 160.27865617 356.81616987 161.04790915 C356.85014872 173.12992955 356.93232194 185.21112808 357.03410457 197.29274767 C357.13778126 209.70152773 357.19591 222.10988602 357.21040261 234.51909548 C357.21971397 241.48462923 357.24906756 248.44881913 357.3298912 255.41392326 C357.40589446 261.97161035 357.42042487 268.52742908 357.39387894 275.08563995 C357.39398674 277.48866249 357.41454418 279.89178719 357.4573822 282.29442787 C357.77918121 301.36764743 357.77918121 301.36764743 353.42612076 306.77826118 C350.58991478 309.65373363 347.39739942 311.8208498 344 314 C342.171342 315.48025882 340.35608765 316.97743651 338.5625 318.5 C337.66402344 319.22445313 336.76554687 319.94890625 335.83984375 320.6953125 C332.73373377 323.21608951 329.67486436 325.78675394 326.625 328.375 C326.08472168 328.83285889 325.54444336 329.29071777 324.98779297 329.76245117 C322.17593431 332.14732388 319.3693418 334.53824213 316.56640625 336.93359375 C316.00034668 337.41586426 315.43428711 337.89813477 314.85107422 338.39501953 C313.28852721 339.72641782 311.72817136 341.06038645 310.16796875 342.39453125 C309.65368726 342.81338447 309.13940577 343.23223769 308.60953999 343.66378343 C307.49888596 344.58583217 306.42121325 345.54857115 305.37351513 346.54157412 C299.45448291 351.71901297 294.33010769 351.83872245 286.68676758 351.7215271 C285.4619014 351.72666321 284.23703522 351.73179932 282.97505188 351.73709106 C279.58468173 351.74527175 276.19640504 351.72654823 272.806288 351.69643638 C269.09105398 351.67016896 265.37586975 351.67900843 261.66056824 351.68334389 C254.45392224 351.68652938 247.24772609 351.65886997 240.04119557 351.62033591 C231.70254986 351.57708571 223.3641732 351.57236477 215.02539062 351.56762695 C193.01685594 351.53614243 171.00842119 351.4523755 149 351.375 C99.83 351.25125 50.66 351.1275 0 351 C0 235.17 0 119.34 0 0 Z M71 71 C71 139.97 71 208.94 71 280 C104.103125 280.20625 137.20625 280.4125 171.3125 280.625 C186.9810144 280.76156006 186.9810144 280.76156006 202.96606445 280.90087891 C212.34369538 280.93432682 212.34369538 280.93432682 221.72135925 280.95443726 C225.89308541 280.96374067 230.06353434 281.00115584 234.23490906 281.05575562 C239.56329113 281.12457111 244.88982781 281.14487317 250.21861303 281.13072276 C252.16949284 281.13367955 254.12043997 281.15338413 256.0709368 281.19215131 C268.59377848 281.43598504 268.59377848 281.43598504 279.64802551 276.05622864 C286.06296906 268.97896184 285.54754065 260.94162987 285.42333984 251.96508789 C285.43826607 250.14892853 285.45786351 248.3328025 285.48175049 246.51673889 C285.5317023 241.60682037 285.51254261 236.69945717 285.47758055 231.78949666 C285.44962252 226.63762763 285.47558908 221.48596933 285.49282837 216.33409119 C285.51281195 207.68302349 285.4865477 199.03299047 285.43408203 190.38208008 C285.37423795 180.39969599 285.39359873 170.41978406 285.45417249 160.43746001 C285.50419815 151.847559 285.51108237 143.25839946 285.48234713 134.66839975 C285.46525296 129.54646128 285.46275394 124.42568225 285.4992485 119.30381966 C285.5311861 114.48535138 285.50870962 109.67004776 285.44541168 104.85191917 C285.43094889 103.09083419 285.43490518 101.32947972 285.45930099 99.56850433 C285.64743287 88.32705603 285.64743287 88.32705603 280.11216223 78.93722957 C274.24065996 73.32222272 270.17957122 70.6978755 262.08442688 70.75949097 C261.27120468 70.75777893 260.45798248 70.75606689 259.62011719 70.75430298 C256.87727183 70.75098364 254.13466887 70.76205409 251.3918457 70.77294922 C249.39903108 70.77356166 247.40621603 70.7732953 245.4134016 70.7722187 C240.06604845 70.7717663 234.71878442 70.78337656 229.37145233 70.79743958 C224.35778007 70.80881081 219.34412973 70.8093648 214.33044434 70.81079102 C199.65778437 70.82129491 184.98514107 70.84921709 170.3125 70.875 C121.1528125 70.936875 121.1528125 70.936875 71 71 Z " fill="#008CEE" transform="translate(0,0)"/>
  <path d="M0 0 C1.22401016 -0.00513611 2.44802032 -0.01027222 3.7091217 -0.01556396 C7.10174744 -0.02375339 10.4922875 -0.00499664 13.88466136 0.02509072 C17.60062313 0.05133236 21.31653411 0.04252036 25.03256321 0.03818321 C32.24270936 0.03499594 39.45240639 0.06267274 46.6624372 0.10119119 C55.00401127 0.14441921 63.34531621 0.14916112 71.68702698 0.15390015 C93.70626311 0.18539247 115.72539936 0.26915931 137.74452209 0.3465271 C186.93514709 0.4702771 236.12577209 0.5940271 286.80702209 0.7215271 C286.80702209 116.5515271 286.80702209 232.3815271 286.80702209 351.7215271 C237.69889709 351.9071521 188.59077209 352.0927771 137.99452209 352.2840271 C122.48476379 352.36596313 106.97500549 352.44789917 90.99525452 352.53231812 C72.06544495 352.57296753 72.06544495 352.57296753 63.20541382 352.58052063 C57.01308423 352.58891055 50.82148619 352.62190914 44.62936401 352.67170715 C37.48446238 352.7290824 30.34026184 352.75503106 23.19512822 352.74253165 C19.54135805 352.73711965 15.88915372 352.74556945 12.23567235 352.79446328 C8.31686837 352.84658753 4.40013012 352.8284166 0.48101807 352.80381775 C-0.65000682 352.83003173 -1.7810317 352.85624571 -2.94633007 352.88325405 C-12.10378823 352.72900756 -16.743607 348.93266336 -23.19297791 342.7215271 C-24.33797083 341.74514209 -25.49021546 340.77710161 -26.65391541 339.8230896 C-28.09637634 338.59719116 -28.09637634 338.59719116 -29.56797791 337.3465271 C-30.37114441 336.665177 -30.37114441 336.665177 -31.1905365 335.97006226 C-33.41456577 334.08330193 -35.63670746 332.19432437 -37.85899353 330.30551147 C-39.51131357 328.90171901 -41.16435743 327.49878744 -42.81797791 326.0965271 C-43.35632263 325.63995728 -43.89466736 325.18338745 -44.44932556 324.71298218 C-48.70721283 321.11139551 -53.02026339 317.58150217 -57.36485291 314.08480835 C-58.29813416 313.30492554 -59.23141541 312.52504272 -60.19297791 311.7215271 C-60.92029554 311.34405807 -61.64761318 310.96658903 -62.39697075 310.57768154 C-66.09896381 308.23929907 -68.66453676 305.92124006 -69.72061777 301.52514958 C-70.62370254 294.35988994 -70.41721966 287.12251248 -70.35752869 279.91513062 C-70.36972867 277.45565697 -70.38575593 274.99619978 -70.40531921 272.53677368 C-70.44207344 266.55726367 -70.43672995 260.57916334 -70.41060545 254.59970874 C-70.39024781 249.7381451 -70.38753702 244.87686621 -70.39731979 240.01527214 C-70.39869889 239.32233889 -70.40007799 238.62940565 -70.40149888 237.91547443 C-70.40437652 236.5076112 -70.40729445 235.09974805 -70.4102522 233.69188499 C-70.43589473 220.50097466 -70.40644364 207.31062792 -70.3580489 194.11981004 C-70.31784911 182.81285728 -70.32481771 171.50673629 -70.36631775 160.19979858 C-70.41453562 147.05647073 -70.43341365 133.91363657 -70.40580738 120.77023262 C-70.40294057 119.36735443 -70.40011123 117.96447616 -70.39731979 116.56159782 C-70.39593131 115.87143246 -70.39454283 115.18126709 -70.39311228 114.47018762 C-70.38535677 109.61758812 -70.39842447 104.76530296 -70.41963577 99.91275215 C-70.4475876 93.37467491 -70.42754754 86.83792131 -70.37558746 80.2999115 C-70.36370245 77.90261372 -70.36707936 75.50518364 -70.38695145 73.10793877 C-70.54029392 52.72826148 -70.54029392 52.72826148 -64.85847473 46.93647766 C-62.49310112 45.17837429 -62.49310112 45.17837429 -60.19297791 43.7215271 C-58.90569133 42.61539165 -57.63185248 41.49313254 -56.38047791 40.3465271 C-55.41174744 39.51508179 -55.41174744 39.51508179 -54.42344666 38.6668396 C-51.63432008 36.23429138 -48.91378572 33.72975859 -46.19297791 31.2215271 C-42.91460181 28.20207684 -39.62716281 25.19950094 -36.25547791 22.2840271 C-32.08729081 18.67392363 -28.05439784 14.92093506 -24.02330017 11.15927124 C-22.9910638 10.19957298 -21.95055083 9.24867706 -20.90081173 8.30815566 C-19.19388806 6.76958746 -19.19388806 6.76958746 -17.77338594 5.14485776 C-12.45871972 -0.31762621 -7.31297474 -0.11184404 0 0 Z M6.80702209 80.7215271 C6.07519998 81.32400678 5.34337786 81.92648645 4.58937931 82.54722309 C2.08464267 85.60276037 2.22973355 88.41361268 2.25198364 92.1965332 C2.24080472 92.95243598 2.2296258 93.70833876 2.21810812 94.48714769 C2.18574348 97.02201358 2.18201454 99.55609793 2.17835999 102.09115601 C2.16148079 103.90802499 2.14300381 105.72487974 2.12304688 107.54171753 C2.07484416 112.48002074 2.0531637 117.41809126 2.03919911 122.35659838 C2.02969218 125.44359685 2.01524228 128.53053321 1.99918938 131.61750412 C1.94418771 142.39226992 1.91321593 153.16684697 1.90101624 163.94174194 C1.88891971 173.97606857 1.82039254 184.00896334 1.72628981 194.04282439 C1.64827243 202.66298951 1.61273546 211.28267876 1.60936731 219.90319383 C1.60648198 225.04944521 1.58603342 230.19416409 1.52173042 235.34004593 C1.46244343 240.1851861 1.4561358 245.02759628 1.48966408 249.87295532 C1.49301113 251.6458647 1.47773116 253.41892772 1.44192886 255.19147873 C1.2859335 263.40876053 1.32457544 270.35509336 7.15205383 276.78469849 C15.18158351 282.79202333 24.01913262 282.04718146 33.59877014 281.85678101 C35.62259383 281.85371367 37.6464282 281.8550594 39.67024708 281.86043358 C45.06566095 281.86268129 50.45883429 281.80494375 55.85372162 281.73432922 C60.92534039 281.67716205 65.99642831 281.67468677 71.06837463 281.66757202 C85.87738453 281.61520486 100.68598203 281.47559199 115.49452209 281.3465271 C148.59764709 281.1402771 181.70077209 280.9340271 215.80702209 280.7215271 C215.80702209 211.7515271 215.80702209 142.7815271 215.80702209 71.7215271 C183.17827209 71.5359021 150.54952209 71.3502771 116.93202209 71.1590271 C106.63386292 71.07709106 96.33570374 70.99515503 85.72547913 70.91073608 C76.48487682 70.88063402 76.48487682 70.88063402 67.24424744 70.86253357 C63.13174134 70.85415651 59.02028341 70.82046566 54.9080658 70.77134705 C49.65680582 70.70945724 44.40706241 70.69113365 39.15547156 70.70387661 C37.23186933 70.7012135 35.30821229 70.68345447 33.38492417 70.64859092 C21.60269004 70.44499517 14.70592888 71.0417752 6.80702209 80.7215271 Z " fill="#000000" transform="translate(507.19297790527344,-0.721527099609375)"/>
</g>
</svg>
