<?xml version="1.0"?>
<svg width="1024" height="1024" xmlns="http://www.w3.org/2000/svg" xmlns:svg="http://www.w3.org/2000/svg" version="1.1">
 <g class="layer" transform="scale(0.8) rotate(-45 800 230)">
  <title>Layer 1</title>
  <path d="m507.91,442.52c1.22,0 2.44,-0.01 3.7,-0.01c3.39,-0.01 6.77,0.01 10.16,0.03c3.65,0.01 7.31,0.01 10.96,0.01c6.33,-0.01 12.65,0.01 18.98,0.03c9.15,0.03 18.3,0.04 27.45,0.05c14.84,0 29.69,0.03 44.53,0.07c14.42,0.04 28.84,0.06 43.26,0.08c0.89,0 1.78,0 2.69,0c4.46,0.01 8.92,0.01 13.38,0.02c36.99,0.04 73.98,0.11 110.98,0.2c0.32,38.52 0.56,77.05 0.71,115.57c0.02,4.55 0.04,9.1 0.05,13.65c0.01,0.91 0.01,1.82 0.02,2.75c0.06,14.66 0.17,29.32 0.3,43.97c0.13,15.05 0.2,30.1 0.23,45.15c0.02,9.28 0.08,18.56 0.2,27.84c0.07,6.37 0.09,12.73 0.07,19.1c0,3.68 0.01,7.35 0.08,11.02c0.46,23.13 0.46,23.13 -4.69,29.26c-2.83,2.69 -5.85,4.77 -9.24,6.67c-2.65,1.56 -4.91,3.53 -7.23,5.52c-0.88,0.71 -1.76,1.42 -2.66,2.16c-3.32,2.73 -6.58,5.53 -9.84,8.34c-5.11,4.4 -10.27,8.72 -15.5,12.97c-2.6,2.03 -2.6,2.03 -5.04,4.62c-4.11,3.4 -8.24,3.12 -13.38,3.07c-1,0.01 -1.99,0.02 -3.02,0.04c-3.33,0.02 -6.65,0.02 -9.99,0.01c-2.38,0.01 -4.77,0.03 -7.16,0.05c-5.82,0.03 -11.63,0.05 -17.44,0.04c-4.73,0 -9.46,0.01 -14.19,0.03c-14.87,0.04 -29.75,0.05 -44.63,0.04c-11.72,-0.01 -23.45,0.03 -35.17,0.1c-12.05,0.06 -24.09,0.09 -36.14,0.08c-6.76,0 -13.52,0.01 -20.28,0.06c-6.36,0.04 -12.72,0.04 -19.08,0c-2.33,-0.01 -4.66,0 -6.99,0.03c-19.8,0.21 -19.8,0.21 -26.28,-5.56c-1.28,-1.49 -2.53,-3.01 -3.71,-4.58c-1.74,-1.45 -3.49,-2.9 -5.25,-4.31c-4.88,-3.95 -9.65,-8 -14.41,-12.1c-5.04,-4.34 -10.12,-8.63 -15.21,-12.92c-0.49,-0.44 -0.99,-0.87 -1.5,-1.32c-1.64,-1.42 -1.64,-1.42 -3.66,-2.59c-3.74,-2.55 -5.69,-4.5 -6.7,-9c-0.26,-4.19 -0.27,-8.32 -0.18,-12.52c0,-1.63 0,-3.26 -0.01,-4.9c0,-4.36 0.05,-8.72 0.11,-13.08c0.04,-4.09 0.04,-8.19 0.05,-12.29c0.04,-11.97 0.15,-23.94 0.26,-35.91c0.16,-26.75 0.33,-53.5 0.5,-81.06c59.07,0 118.14,0 179,0c0,23.43 0,46.86 0,71c-35.31,0 -70.62,0 -107,0c-0.07,9.55 -0.13,19.1 -0.19,28.94c-0.05,3 -0.1,6 -0.15,9.08c0.01,2.4 0.02,4.8 0.04,7.2c-0.05,1.84 -0.05,1.84 -0.1,3.72c0.07,4.88 0.32,8.61 3.28,12.62c8.75,7.82 16.4,7.73 27.54,7.61c1.85,0.01 3.69,0.02 5.54,0.04c4.98,0.04 9.97,0.03 14.95,0c5.24,-0.02 10.47,0 15.7,0.01c8.79,0.02 17.57,0 26.36,-0.05c10.14,-0.04 20.28,-0.03 30.41,0.02c8.73,0.04 17.45,0.05 26.18,0.02c5.2,-0.01 10.4,-0.01 15.61,0.02c4.89,0.02 9.78,0.01 14.67,-0.05c1.79,-0.01 3.58,0 5.37,0.01c9.53,0.1 17.67,-0.06 24.89,-7.12c4,-6.47 3.41,-13.67 3.3,-21.02c0.02,-1.82 0.03,-3.64 0.06,-5.46c0.04,-4.92 0.02,-9.84 -0.02,-14.76c-0.03,-5.16 -0.01,-10.33 0.01,-15.49c0.01,-8.66 -0.02,-17.33 -0.08,-25.99c-0.06,-10.01 -0.05,-20.01 0,-30.02c0.05,-9.64 0.04,-19.28 0,-28.92c-0.01,-4.1 0,-8.19 0.02,-12.29c0.02,-4.82 0,-9.65 -0.06,-14.47c-0.02,-1.77 -0.01,-3.54 0.01,-5.31c0.27,-9.69 0.27,-9.69 -3.52,-18.34c-2.5,-2.29 -4.98,-4.16 -7.82,-6c-0.92,-0.84 -0.92,-0.84 -1.86,-1.7c-3.09,-1.88 -6.05,-1.73 -9.56,-1.71c-0.75,0 -1.5,-0.01 -2.28,-0.02c-2.51,-0.02 -5.02,-0.02 -7.54,-0.02c-1.8,-0.01 -3.6,-0.02 -5.4,-0.04c-4.9,-0.03 -9.8,-0.04 -14.69,-0.04c-3.06,-0.01 -6.12,-0.02 -9.18,-0.03c-10.68,-0.03 -21.35,-0.05 -32.03,-0.05c-9.94,0 -19.89,-0.04 -29.84,-0.1c-8.54,-0.05 -17.08,-0.07 -25.63,-0.07c-5.1,0 -10.2,-0.01 -15.3,-0.05c-4.8,-0.04 -9.6,-0.04 -14.4,-0.02c-1.76,0.01 -3.52,0 -5.28,-0.02c-9.06,-0.41 -9.06,-0.41 -17.44,2.31c-1.81,1.71 -1.81,1.71 -3.08,3.57c-1.49,1.99 -1.49,1.99 -7.49,6.99c-0.33,11.55 -0.66,23.1 -1,35c-23.76,0 -47.52,0 -72,0c-0.15,-10.91 -0.29,-21.82 -0.44,-33.06c-0.07,-3.44 -0.13,-6.87 -0.2,-10.41c-0.02,-2.73 -0.03,-5.46 -0.05,-8.19c-0.03,-1.05 -0.03,-1.05 -0.05,-2.13c-0.29,-11.58 -0.29,-11.58 2.27,-15.65c1.73,-1.75 3.44,-3.16 5.47,-4.56c1.01,-0.92 1.01,-0.92 2.04,-1.86c0.56,-0.48 1.13,-0.96 1.71,-1.45c3.29,-2.85 6.53,-5.75 9.75,-8.69c3.76,-3.43 7.56,-6.81 11.4,-10.16c2.56,-2.25 5.08,-4.54 7.6,-6.84c4.45,-4.06 8.9,-8.1 13.5,-12c0.61,-0.68 1.23,-1.36 1.87,-2.07c4.83,-2.98 9.47,-2.47 15.04,-2.41z" fill="#ffffff" id="svg_1"/>
  <path d="m0,443c49.01,-0.31 98.01,-0.62 148.5,-0.94c15.46,-0.13 30.93,-0.27 46.86,-0.41c18.91,-0.07 18.91,-0.07 27.76,-0.08c6.18,-0.02 12.35,-0.07 18.53,-0.15c7.13,-0.1 14.26,-0.14 21.39,-0.12c3.65,0.01 7.29,-0.01 10.94,-0.09c23.76,-0.51 23.76,-0.51 32.33,6.93c2.51,2.52 4.79,5.15 7.01,7.91c2.89,3.36 6.3,6.1 9.68,8.95c2.02,1.81 4.01,3.66 6,5.5c3.28,3.02 6.57,6.02 9.94,8.94c0.57,0.52 1.14,1.05 1.73,1.58c2.39,2.11 2.39,2.11 5.51,4.1c5.65,4.02 9.83,7.92 11.03,14.97c0.64,6.42 0.53,12.83 0.44,19.26c0.01,2.47 0.03,4.94 0.06,7.41c0.05,5.99 0.03,11.98 -0.01,17.97c-0.04,4.87 -0.05,9.74 -0.04,14.61c0,0.69 0,1.39 0.01,2.1c0,1.42 0,2.83 0.01,4.24c0.02,13.22 -0.03,26.44 -0.11,39.65c-0.06,11.33 -0.07,22.66 -0.03,33.98c0.05,13.18 0.07,26.36 0.02,39.53c0,1.41 -0.01,2.82 -0.01,4.22c0,0.7 0,1.39 -0.01,2.1c-0.01,4.86 0,9.72 0.02,14.59c0.03,6.54 -0.01,13.09 -0.08,19.64c-0.02,2.4 -0.01,4.8 0.01,7.2c0.15,19.09 0.15,19.09 -3.91,23.78c-2.77,2.29 -5.41,3.97 -8.58,5.63c-1.18,0.93 -2.34,1.89 -3.46,2.9c-1.51,1.28 -3.02,2.57 -4.54,3.85c-1.67,1.42 -3.33,2.83 -5,4.25c-7.04,5.98 -14.09,11.93 -21.27,17.73c-2.63,2.08 -2.63,2.08 -4.31,3.99c-3.79,3.9 -6.61,5.74 -12.09,6.14c-2.23,0.03 -4.45,0.02 -6.68,-0.02c-1.84,0.01 -1.84,0.01 -3.73,0.02c-3.4,0.01 -6.8,-0.01 -10.2,-0.05c-3.73,-0.03 -7.45,-0.02 -11.18,-0.01c-7.23,0 -14.46,-0.03 -21.69,-0.08c-8.37,-0.05 -16.74,-0.05 -25.1,-0.06c-22.09,-0.03 -44.17,-0.13 -66.25,-0.22c-49.33,-0.15 -98.67,-0.29 -149.5,-0.44c0,-115.83 0,-231.66 0,-351zm71,71c0,68.97 0,137.94 0,209c33.1,0.21 66.21,0.41 100.31,0.63c15.67,0.13 15.67,0.13 31.66,0.27c9.37,0.03 9.37,0.03 18.75,0.05c4.17,0.01 8.34,0.05 12.51,0.11c5.33,0.06 10.66,0.08 15.99,0.07c1.95,0 3.9,0.02 5.85,0.06c12.52,0.25 12.52,0.25 23.58,-5.13c6.42,-7.08 5.89,-15.13 5.76,-24.11c0.01,-1.82 0.03,-3.64 0.05,-5.45c0.05,-4.92 0.02,-9.83 -0.02,-14.74c-0.03,-5.16 0,-10.31 0.01,-15.47c0.02,-8.65 -0.01,-17.31 -0.07,-25.96c-0.07,-9.99 -0.05,-19.98 0,-29.97c0.04,-9.63 0.03,-19.26 0,-28.89c-0.02,-4.09 -0.01,-8.18 0.01,-12.27c0.03,-4.82 0,-9.64 -0.06,-14.46c-0.01,-1.76 -0.01,-3.53 0.01,-5.29c0.22,-9.82 0.22,-9.82 -3.51,-18.68c-2.49,-2.53 -4.96,-4.68 -7.83,-6.77c-0.6,-0.57 -1.2,-1.14 -1.82,-1.73c-3.28,-1.91 -6.53,-1.67 -10.22,-1.63c-0.81,0 -1.62,-0.01 -2.46,-0.01c-2.74,0 -5.48,0.01 -8.22,0.03c-1.99,0 -3.99,0 -5.98,0c-5.34,0 -10.69,0.02 -16.03,0.04c-5.01,0.01 -10.02,0.01 -15.03,0.02c-14.67,0.01 -29.33,0.05 -43.99,0.09c-49.13,0.1 -49.13,0.1 -99.25,0.19z" fill="#ffffff" id="svg_2"/>
  <path d="m0,0c73.54,-0.43 73.54,-0.43 148.56,-0.88c23.21,-0.19 23.21,-0.19 46.89,-0.38c18.91,-0.06 18.91,-0.06 27.77,-0.08c6.18,-0.01 12.36,-0.06 18.54,-0.14c7.13,-0.09 14.26,-0.13 21.4,-0.11c3.65,0.01 7.29,0 10.93,-0.08c23.8,-0.47 23.8,-0.47 32.04,6.61c2.37,2.37 4.53,4.83 6.59,7.47c1.63,2.02 3.47,3.65 5.47,5.28c3.29,2.83 6.49,5.75 9.69,8.69c5.34,4.91 10.72,9.77 16.12,14.62c1.83,1.65 3.67,3.29 5.5,4.94c0.81,0.73 1.63,1.46 2.47,2.21c4,3.64 4,3.64 4.29,5.7c0.01,0.75 0.01,1.51 0.02,2.29c0.01,0.87 0.02,1.74 0.03,2.64c0.01,0.96 0.01,1.92 0.01,2.92c0.01,1.01 0.02,2.03 0.03,3.08c0.03,3.44 0.05,6.88 0.07,10.31c0.02,2.46 0.04,4.91 0.06,7.37c0.05,7.39 0.09,14.77 0.13,22.16c0.01,2.09 0.02,4.17 0.03,6.26c0.06,12.97 0.11,25.93 0.15,38.89c0,3.01 0.01,6.01 0.02,9.02c0,0.74 0,1.49 0.01,2.26c0.03,12.08 0.11,24.16 0.21,36.24c0.11,12.41 0.17,24.82 0.18,37.23c0.01,6.96 0.04,13.93 0.12,20.89c0.08,6.56 0.09,13.12 0.06,19.68c0,2.4 0.02,4.8 0.07,7.2c0.32,19.08 0.32,19.08 -4.03,24.49c-2.84,2.87 -6.03,5.04 -9.43,7.22c-1.83,1.48 -3.64,2.98 -5.44,4.5c-0.9,0.72 -1.79,1.45 -2.72,2.2c-3.11,2.52 -6.17,5.09 -9.21,7.68c-0.55,0.45 -1.09,0.91 -1.64,1.38c-2.81,2.39 -5.62,4.78 -8.42,7.17c-0.57,0.49 -1.14,0.97 -1.72,1.47c-1.56,1.33 -3.12,2.66 -4.68,3.99c-0.52,0.42 -1.03,0.84 -1.56,1.27c-1.11,0.93 -2.19,1.89 -3.24,2.88c-5.92,5.18 -11.04,5.3 -18.68,5.18c-1.23,0.01 -2.45,0.01 -3.71,0.02c-3.4,0.01 -6.78,-0.01 -10.17,-0.04c-3.72,-0.03 -7.43,-0.02 -11.15,-0.02c-7.21,0.01 -14.41,-0.02 -21.62,-0.06c-8.34,-0.04 -16.68,-0.05 -25.01,-0.05c-22.01,-0.03 -44.02,-0.12 -66.03,-0.19c-49.17,-0.13 -98.34,-0.25 -149,-0.38c0,-115.83 0,-231.66 0,-351zm71,71c0,68.97 0,137.94 0,209c33.1,0.21 66.21,0.41 100.31,0.63c15.67,0.13 15.67,0.13 31.66,0.27c9.37,0.03 9.37,0.03 18.75,0.05c4.17,0.01 8.34,0.05 12.51,0.11c5.33,0.06 10.66,0.08 15.99,0.07c1.95,0 3.9,0.02 5.85,0.06c12.52,0.25 12.52,0.25 23.58,-5.13c6.41,-7.08 5.9,-15.12 5.77,-24.09c0.02,-1.82 0.04,-3.64 0.06,-5.45c0.05,-4.91 0.03,-9.82 0,-14.73c-0.03,-5.15 0,-10.3 0.01,-15.46c0.02,-8.65 0,-17.3 -0.06,-25.95c-0.06,-9.98 -0.04,-19.96 0.02,-29.94c0.05,-8.59 0.06,-17.18 0.03,-25.77c-0.01,-5.12 -0.02,-10.24 0.02,-15.37c0.03,-4.81 0.01,-9.63 -0.05,-14.45c-0.02,-1.76 -0.02,-3.52 0.01,-5.28c0.19,-11.24 0.19,-11.24 -5.35,-20.63c-5.87,-5.62 -9.93,-8.24 -18.03,-8.18c-0.81,0 -1.62,0 -2.46,-0.01c-2.74,0 -5.49,0.01 -8.23,0.02c-1.99,0 -3.98,0 -5.98,0c-5.34,0 -10.69,0.01 -16.04,0.03c-5.01,0.01 -10.03,0.01 -15.04,0.01c-14.67,0.01 -29.34,0.04 -44.02,0.07c-49.16,0.06 -49.16,0.06 -99.31,0.12z" fill="#ffffff" id="svg_3"/>
  <path d="m507.19,-0.72c1.22,-0.01 2.45,-0.01 3.71,-0.02c3.39,0 6.78,0.02 10.17,0.05c3.72,0.02 7.44,0.01 11.15,0.01c7.21,-0.01 14.42,0.02 21.63,0.06c8.34,0.04 16.69,0.05 25.03,0.05c22.02,0.04 44.04,0.12 66.05,0.2c49.2,0.12 98.39,0.24 149.07,0.37c0,115.83 0,231.66 0,351c-49.11,0.19 -98.22,0.37 -148.82,0.56c-15.51,0.09 -31.01,0.17 -46.99,0.25c-18.93,0.04 -18.93,0.04 -27.79,0.05c-6.2,0.01 -12.39,0.04 -18.58,0.09c-7.15,0.06 -14.29,0.09 -21.43,0.07c-3.66,0 -7.31,0.01 -10.96,0.05c-3.92,0.06 -7.84,0.04 -11.76,0.01c-1.13,0.03 -2.26,0.06 -3.43,0.08c-9.15,-0.15 -13.79,-3.95 -20.24,-10.16c-1.15,-0.97 -2.3,-1.94 -3.46,-2.9c-1.45,-1.22 -1.45,-1.22 -2.92,-2.47c-0.8,-0.68 -0.8,-0.68 -1.62,-1.38c-2.22,-1.89 -4.45,-3.78 -6.67,-5.66c-1.65,-1.41 -3.3,-2.81 -4.96,-4.21c-0.54,-0.46 -1.07,-0.92 -1.63,-1.39c-4.26,-3.6 -8.57,-7.13 -12.91,-10.63c-0.94,-0.78 -1.87,-1.55 -2.83,-2.36c-0.73,-0.38 -1.46,-0.75 -2.21,-1.14c-3.7,-2.34 -6.26,-4.66 -7.32,-9.05c-0.9,-7.17 -0.7,-14.41 -0.64,-21.61c-0.01,-2.46 -0.03,-4.92 -0.05,-7.38c-0.03,-5.98 -0.03,-11.96 0,-17.94c0.02,-4.86 0.02,-9.72 0.01,-14.58c0,-0.7 0,-1.39 0,-2.1c0,-1.41 -0.01,-2.82 -0.01,-4.23c-0.03,-13.19 0,-26.38 0.05,-39.57c0.04,-11.31 0.04,-22.61 -0.01,-33.92c-0.04,-13.14 -0.06,-26.29 -0.04,-39.43c0.01,-1.4 0.01,-2.81 0.01,-4.21c0,-0.69 0.01,-1.38 0.01,-2.09c0,-4.85 -0.01,-9.7 -0.03,-14.56c-0.03,-6.54 -0.01,-13.07 0.04,-19.61c0.02,-2.4 0.01,-4.79 -0.01,-7.19c-0.15,-20.38 -0.15,-20.38 5.53,-26.17c2.37,-1.76 2.37,-1.76 4.67,-3.22c1.28,-1.1 2.56,-2.23 3.81,-3.37c0.97,-0.83 0.97,-0.83 1.96,-1.68c2.79,-2.44 5.51,-4.94 8.23,-7.45c3.28,-3.02 6.56,-6.02 9.93,-8.94c4.17,-3.61 8.21,-7.36 12.24,-11.12c1.03,-0.96 2.07,-1.91 3.12,-2.85c1.71,-1.54 1.71,-1.54 3.13,-3.17c5.31,-5.46 10.46,-5.25 17.77,-5.14zm6.81,80.72c-0.73,0.6 -1.47,1.21 -2.22,1.83c-2.51,3.05 -2.36,5.86 -2.34,9.65c-0.01,0.75 -0.02,1.51 -0.03,2.29c-0.03,2.53 -0.04,5.07 -0.04,7.6c-0.02,1.82 -0.04,3.63 -0.06,5.45c-0.05,4.94 -0.07,9.88 -0.08,14.82c-0.01,3.08 -0.02,6.17 -0.04,9.26c-0.06,10.77 -0.09,21.55 -0.1,32.32c-0.01,10.04 -0.08,20.07 -0.17,30.1c-0.08,8.62 -0.12,17.24 -0.12,25.86c0,5.15 -0.02,10.29 -0.09,15.44c-0.06,4.85 -0.06,9.69 -0.03,14.53c0,1.78 -0.01,3.55 -0.05,5.32c-0.15,8.22 -0.12,15.17 5.71,21.59c8.03,6.01 16.87,5.27 26.45,5.08c2.02,-0.01 4.05,0 6.07,0c5.4,0 10.79,-0.06 16.18,-0.13c5.08,-0.05 10.15,-0.06 15.22,-0.06c14.81,-0.05 29.62,-0.19 44.42,-0.32c33.11,-0.21 66.21,-0.42 100.32,-0.63c0,-68.97 0,-137.94 0,-209c-32.63,-0.18 -65.26,-0.37 -98.88,-0.56c-10.3,-0.08 -20.59,-0.16 -31.2,-0.25c-9.25,-0.03 -9.25,-0.03 -18.49,-0.05c-4.11,-0.01 -8.22,-0.04 -12.33,-0.09c-5.25,-0.06 -10.5,-0.08 -15.75,-0.07c-1.93,0 -3.85,-0.02 -5.78,-0.05c-11.78,-0.21 -18.67,0.39 -26.57,10.07z" fill="#ffffff" id="svg_4"/>
 </g>

</svg>