<?xml version="1.0" standalone="no"?>
<!DOCTYPE svg PUBLIC "-//W3C//DTD SVG 20010904//EN"
 "http://www.w3.org/TR/2001/REC-SVG-20010904/DTD/svg10.dtd">
<svg version="1.0" xmlns="http://www.w3.org/2000/svg"
 width="794.000000pt" height="794.000000pt" viewBox="0 0 794.000000 794.000000"
 preserveAspectRatio="xMidYMid meet">

<g transform="translate(0.000000,794.000000) scale(0.100000,-0.100000)"
fill="#000000" stroke="none">
<path d="M0 6185 l0 -1755 1488 1 1487 0 287 242 288 242 0 1250 0 1250 -292
263 -291 262 -1484 0 -1483 0 0 -1755z m2776 989 l74 -66 0 -937 0 -937 -62
-52 -63 -52 -1012 0 -1013 0 0 1055 0 1055 1001 0 1001 0 74 -66z"/>
<path d="M4675 7677 l-290 -263 0 -1249 0 -1250 288 -242 288 -243 1490 0
1489 0 0 1755 0 1755 -1487 0 -1488 0 -290 -263z m2555 -1492 l0 -1055 -1004
0 -1004 0 -66 56 -66 56 0 928 0 928 77 71 77 71 993 0 993 0 0 -1055z"/>
<path d="M0 1755 l0 -1755 1490 0 1491 0 289 242 289 243 -2 1250 -2 1249
-290 263 -290 263 -1487 0 -1488 0 0 -1755z m2773 984 l77 -71 0 -928 0 -928
-64 -56 -64 -56 -1006 0 -1006 0 0 1055 0 1055 993 0 993 0 77 -71z"/>
<path d="M4833 3379 c-82 -74 -215 -192 -296 -264 l-146 -130 -1 -327 0 -328
350 0 350 0 0 169 0 169 76 71 76 71 920 0 920 0 79 -71 79 -71 0 -929 0 -929
-67 -55 -67 -55 -944 0 -945 0 -63 53 -63 52 0 303 -1 302 535 0 535 0 0 350
0 350 -885 0 -885 0 0 -813 0 -812 288 -242 287 -242 1196 -1 1195 0 287 241
287 241 2 1172 c2 1170 -1 1837 -8 1845 -2 3 -665 7 -1472 9 l-1469 5 -150
-134z"/>
</g>
</svg>
