<?xml version="1.0"?>
<svg width="794" height="794" xmlns="http://www.w3.org/2000/svg" xmlns:svg="http://www.w3.org/2000/svg" preserveAspectRatio="xMidYMid meet" version="1.0">

 <g class="layer">
  <title>Layer 1</title>
  <g fill="#000000" id="svg_1" transform="matrix(0.1, 0, 0, -0.1, 0, 0)">
   <path d="m0,-1755l0,-1755l1488,1l1487,0l287,242l288,242l0,1250l0,1250l-292,263l-291,262l-1484,0l-1483,0l0,-1755zm2776,989l74,-66l0,-937l0,-937l-62,-52l-63,-52l-1012,0l-1013,0l0,1055l0,1055l1001,0l1001,0l74,-66z" fill="#ffffff" id="svg_2"/>
   <path d="m4675,-263l-290,-263l0,-1249l0,-1250l288,-242l288,-243l1490,0l1489,0l0,1755l0,1755l-1487,0l-1488,0l-290,-263zm2555,-1492l0,-1055l-1004,0l-1004,0l-66,56l-66,56l0,928l0,928l77,71l77,71l993,0l993,0l0,-1055z" fill="#ffffff" id="svg_3"/>
   <path d="m0,-6185l0,-1755l1490,0l1491,0l289,242l289,243l-2,1250l-2,1249l-290,263l-290,263l-1487,0l-1488,0l0,-1755zm2773,984l77,-71l0,-928l0,-928l-64,-56l-64,-56l-1006,0l-1006,0l0,1055l0,1055l993,0l993,0l77,-71z" fill="#ffffff" id="svg_4"/>
   <path d="m4833,-4561c-82,-74 -215,-192 -296,-264l-146,-130l-1,-327l0,-328l350,0l350,0l0,169l0,169l76,71l76,71l920,0l920,0l79,-71l79,-71l0,-929l0,-929l-67,-55l-67,-55l-944,0l-945,0l-63,53l-63,52l0,303l-1,302l535,0l535,0l0,350l0,350l-885,0l-885,0l0,-813l0,-812l288,-242l287,-242l1196,-1l1195,0l287,241l287,241l2,1172c2,1170 -1,1837 -8,1845c-2,3 -665,7 -1472,9l-1469,5l-150,-134z" fill="#ffffff" id="svg_5"/>
  </g>
 </g>
</svg>